<svg id="visual" viewBox="0 0 900 675" width="900" height="675" xmlns="http://www.w3.org/2000/svg" xmlns:xlink="http://www.w3.org/1999/xlink" version="1.1"><path d="M600 675L609.7 663.8C619.3 652.7 638.7 630.3 636.8 607.8C635 585.3 612 562.7 610.5 540C609 517.3 629 494.7 626 472.2C623 449.7 597 427.3 598.8 405C600.7 382.7 630.3 360.3 630.5 337.8C630.7 315.3 601.3 292.7 597.7 270.2C594 247.7 616 225.3 631.8 202.8C647.7 180.3 657.3 157.7 638.8 135C620.3 112.3 573.7 89.7 552.3 67.2C531 44.7 535 22.3 537 11.2L539 0L900 0L900 11.2C900 22.3 900 44.7 900 67.2C900 89.7 900 112.3 900 135C900 157.7 900 180.3 900 202.8C900 225.3 900 247.7 900 270.2C900 292.7 900 315.3 900 337.8C900 360.3 900 382.7 900 405C900 427.3 900 449.7 900 472.2C900 494.7 900 517.3 900 540C900 562.7 900 585.3 900 607.8C900 630.3 900 652.7 900 663.8L900 675Z" fill="#030712"></path><path d="M667 675L660.5 663.8C654 652.7 641 630.3 647 607.8C653 585.3 678 562.7 686.3 540C694.7 517.3 686.3 494.7 683.5 472.2C680.7 449.7 683.3 427.3 669.7 405C656 382.7 626 360.3 623.8 337.8C621.7 315.3 647.3 292.7 650.2 270.2C653 247.7 633 225.3 636 202.8C639 180.3 665 157.7 661.7 135C658.3 112.3 625.7 89.7 622 67.2C618.3 44.7 643.7 22.3 656.3 11.2L669 0L900 0L900 11.2C900 22.3 900 44.7 900 67.2C900 89.7 900 112.3 900 135C900 157.7 900 180.3 900 202.8C900 225.3 900 247.7 900 270.2C900 292.7 900 315.3 900 337.8C900 360.3 900 382.7 900 405C900 427.3 900 449.7 900 472.2C900 494.7 900 517.3 900 540C900 562.7 900 585.3 900 607.8C900 630.3 900 652.7 900 663.8L900 675Z" fill="#050a15"></path><path d="M706 675L709.3 663.8C712.7 652.7 719.3 630.3 715.2 607.8C711 585.3 696 562.7 698.8 540C701.7 517.3 722.3 494.7 724.5 472.2C726.7 449.7 710.3 427.3 709.2 405C708 382.7 722 360.3 721.7 337.8C721.3 315.3 706.7 292.7 691 270.2C675.3 247.7 658.7 225.3 658.5 202.8C658.3 180.3 674.7 157.7 685.3 135C696 112.3 701 89.7 702.3 67.2C703.7 44.7 701.3 22.3 700.2 11.2L699 0L900 0L900 11.2C900 22.3 900 44.7 900 67.2C900 89.7 900 112.3 900 135C900 157.7 900 180.3 900 202.8C900 225.3 900 247.7 900 270.2C900 292.7 900 315.3 900 337.8C900 360.3 900 382.7 900 405C900 427.3 900 449.7 900 472.2C900 494.7 900 517.3 900 540C900 562.7 900 585.3 900 607.8C900 630.3 900 652.7 900 663.8L900 675Z" fill="#070c19"></path><path d="M771 675L767.2 663.8C763.3 652.7 755.7 630.3 748.5 607.8C741.3 585.3 734.7 562.7 727.3 540C720 517.3 712 494.7 718.3 472.2C724.7 449.7 745.3 427.3 757.2 405C769 382.7 772 360.3 762.8 337.8C753.7 315.3 732.3 292.7 734.5 270.2C736.7 247.7 762.3 225.3 766.3 202.8C770.3 180.3 752.7 157.7 749.5 135C746.3 112.3 757.7 89.7 758.7 67.2C759.7 44.7 750.3 22.3 745.7 11.2L741 0L900 0L900 11.2C900 22.3 900 44.7 900 67.2C900 89.7 900 112.3 900 135C900 157.7 900 180.3 900 202.8C900 225.3 900 247.7 900 270.2C900 292.7 900 315.3 900 337.8C900 360.3 900 382.7 900 405C900 427.3 900 449.7 900 472.2C900 494.7 900 517.3 900 540C900 562.7 900 585.3 900 607.8C900 630.3 900 652.7 900 663.8L900 675Z" fill="#090e1c"></path><path d="M796 675L792.5 663.8C789 652.7 782 630.3 777 607.8C772 585.3 769 562.7 768.8 540C768.7 517.3 771.3 494.7 774.2 472.2C777 449.7 780 427.3 780.8 405C781.7 382.7 780.3 360.3 787.7 337.8C795 315.3 811 292.7 808.8 270.2C806.7 247.7 786.3 225.3 782.3 202.8C778.3 180.3 790.7 157.7 788.7 135C786.7 112.3 770.3 89.7 771 67.2C771.7 44.7 789.3 22.3 798.2 11.2L807 0L900 0L900 11.2C900 22.3 900 44.7 900 67.2C900 89.7 900 112.3 900 135C900 157.7 900 180.3 900 202.8C900 225.3 900 247.7 900 270.2C900 292.7 900 315.3 900 337.8C900 360.3 900 382.7 900 405C900 427.3 900 449.7 900 472.2C900 494.7 900 517.3 900 540C900 562.7 900 585.3 900 607.8C900 630.3 900 652.7 900 663.8L900 675Z" fill="#0b101f"></path><path d="M843 675L842.2 663.8C841.3 652.7 839.7 630.3 841 607.8C842.3 585.3 846.7 562.7 848.2 540C849.7 517.3 848.3 494.7 848.8 472.2C849.3 449.7 851.7 427.3 851.8 405C852 382.7 850 360.3 843.7 337.8C837.3 315.3 826.7 292.7 824.7 270.2C822.7 247.7 829.3 225.3 828.8 202.8C828.3 180.3 820.7 157.7 820.8 135C821 112.3 829 89.7 834.2 67.2C839.3 44.7 841.7 22.3 842.8 11.2L844 0L900 0L900 11.2C900 22.3 900 44.7 900 67.2C900 89.7 900 112.3 900 135C900 157.7 900 180.3 900 202.8C900 225.3 900 247.7 900 270.2C900 292.7 900 315.3 900 337.8C900 360.3 900 382.7 900 405C900 427.3 900 449.7 900 472.2C900 494.7 900 517.3 900 540C900 562.7 900 585.3 900 607.8C900 630.3 900 652.7 900 663.8L900 675Z" fill="#0d1222"></path></svg>