<svg id="visual" viewBox="0 0 900 675" width="900" height="675" xmlns="http://www.w3.org/2000/svg" xmlns:xlink="http://www.w3.org/1999/xlink" version="1.1"><path d="M331 0L327.8 11.3C324.7 22.7 318.3 45.3 308.7 67.8C299 90.3 286 112.7 285.7 135.2C285.3 157.7 297.7 180.3 297 202.8C296.3 225.3 282.7 247.7 274.8 270.2C267 292.7 265 315.3 271 337.8C277 360.3 291 382.7 292.3 405C293.7 427.3 282.3 449.7 289.3 472.2C296.3 494.7 321.7 517.3 325.3 540C329 562.7 311 585.3 315.7 607.8C320.3 630.3 347.7 652.7 361.3 663.8L375 675L0 675L0 663.8C0 652.7 0 630.3 0 607.8C0 585.3 0 562.7 0 540C0 517.3 0 494.7 0 472.2C0 449.7 0 427.3 0 405C0 382.7 0 360.3 0 337.8C0 315.3 0 292.7 0 270.2C0 247.7 0 225.3 0 202.8C0 180.3 0 157.7 0 135.2C0 112.7 0 90.3 0 67.8C0 45.3 0 22.7 0 11.3L0 0Z" fill="#030712"></path><path d="M206 0L207.3 11.3C208.7 22.7 211.3 45.3 211.5 67.8C211.7 90.3 209.3 112.7 211.3 135.2C213.3 157.7 219.7 180.3 218.2 202.8C216.7 225.3 207.3 247.7 202 270.2C196.7 292.7 195.3 315.3 204.3 337.8C213.3 360.3 232.7 382.7 236.7 405C240.7 427.3 229.3 449.7 236.7 472.2C244 494.7 270 517.3 276.8 540C283.7 562.7 271.3 585.3 264.2 607.8C257 630.3 255 652.7 254 663.8L253 675L0 675L0 663.8C0 652.7 0 630.3 0 607.8C0 585.3 0 562.7 0 540C0 517.3 0 494.7 0 472.2C0 449.7 0 427.3 0 405C0 382.7 0 360.3 0 337.8C0 315.3 0 292.7 0 270.2C0 247.7 0 225.3 0 202.8C0 180.3 0 157.7 0 135.2C0 112.7 0 90.3 0 67.8C0 45.3 0 22.7 0 11.3L0 0Z" fill="#050a15"></path><path d="M251 0L243.3 11.3C235.7 22.7 220.3 45.3 205.3 67.8C190.3 90.3 175.7 112.7 172.7 135.2C169.7 157.7 178.3 180.3 183.7 202.8C189 225.3 191 247.7 203.3 270.2C215.7 292.7 238.3 315.3 236.8 337.8C235.3 360.3 209.7 382.7 205.5 405C201.3 427.3 218.7 449.7 221.7 472.2C224.7 494.7 213.3 517.3 214.7 540C216 562.7 230 585.3 237.2 607.8C244.3 630.3 244.7 652.7 244.8 663.8L245 675L0 675L0 663.8C0 652.7 0 630.3 0 607.8C0 585.3 0 562.7 0 540C0 517.3 0 494.7 0 472.2C0 449.7 0 427.3 0 405C0 382.7 0 360.3 0 337.8C0 315.3 0 292.7 0 270.2C0 247.7 0 225.3 0 202.8C0 180.3 0 157.7 0 135.2C0 112.7 0 90.3 0 67.8C0 45.3 0 22.7 0 11.3L0 0Z" fill="#070c19"></path><path d="M167 0L161 11.3C155 22.7 143 45.3 137.8 67.8C132.7 90.3 134.3 112.7 137.2 135.2C140 157.7 144 180.3 150.8 202.8C157.7 225.3 167.3 247.7 169 270.2C170.7 292.7 164.3 315.3 165.7 337.8C167 360.3 176 382.7 176.2 405C176.3 427.3 167.7 449.7 163.3 472.2C159 494.7 159 517.3 161 540C163 562.7 167 585.3 170.8 607.8C174.7 630.3 178.3 652.7 180.2 663.8L182 675L0 675L0 663.8C0 652.7 0 630.3 0 607.8C0 585.3 0 562.7 0 540C0 517.3 0 494.7 0 472.2C0 449.7 0 427.3 0 405C0 382.7 0 360.3 0 337.8C0 315.3 0 292.7 0 270.2C0 247.7 0 225.3 0 202.8C0 180.3 0 157.7 0 135.2C0 112.7 0 90.3 0 67.8C0 45.3 0 22.7 0 11.3L0 0Z" fill="#090e1c"></path><path d="M106 0L110.7 11.3C115.3 22.7 124.7 45.3 119.8 67.8C115 90.3 96 112.7 97.3 135.2C98.7 157.7 120.3 180.3 119.7 202.8C119 225.3 96 247.7 87.2 270.2C78.3 292.7 83.7 315.3 95.7 337.8C107.7 360.3 126.3 382.7 129 405C131.7 427.3 118.3 449.7 112.8 472.2C107.3 494.7 109.7 517.3 110.7 540C111.7 562.7 111.3 585.3 108.7 607.8C106 630.3 101 652.7 98.5 663.8L96 675L0 675L0 663.8C0 652.7 0 630.3 0 607.8C0 585.3 0 562.7 0 540C0 517.3 0 494.7 0 472.2C0 449.7 0 427.3 0 405C0 382.7 0 360.3 0 337.8C0 315.3 0 292.7 0 270.2C0 247.7 0 225.3 0 202.8C0 180.3 0 157.7 0 135.2C0 112.7 0 90.3 0 67.8C0 45.3 0 22.7 0 11.3L0 0Z" fill="#0b101f"></path><path d="M63 0L61 11.3C59 22.7 55 45.3 60.7 67.8C66.3 90.3 81.7 112.7 83.7 135.2C85.7 157.7 74.3 180.3 68.3 202.8C62.3 225.3 61.7 247.7 61.5 270.2C61.3 292.7 61.7 315.3 58.3 337.8C55 360.3 48 382.7 53 405C58 427.3 75 449.7 74.7 472.2C74.3 494.7 56.7 517.3 57.5 540C58.3 562.7 77.7 585.3 78.8 607.8C80 630.3 63 652.7 54.5 663.8L46 675L0 675L0 663.8C0 652.7 0 630.3 0 607.8C0 585.3 0 562.7 0 540C0 517.3 0 494.7 0 472.2C0 449.7 0 427.3 0 405C0 382.7 0 360.3 0 337.8C0 315.3 0 292.7 0 270.2C0 247.7 0 225.3 0 202.8C0 180.3 0 157.7 0 135.2C0 112.7 0 90.3 0 67.8C0 45.3 0 22.7 0 11.3L0 0Z" fill="#0d1222"></path></svg>