<svg id="visual" viewBox="0 0 900 450" width="900" height="450" xmlns="http://www.w3.org/2000/svg" xmlns:xlink="http://www.w3.org/1999/xlink" version="1.1"><path d="M364 0L366.5 6.8C369 13.7 374 27.3 366.2 41C358.3 54.7 337.7 68.3 327.8 82C318 95.7 319 109.3 323.3 123C327.7 136.7 335.3 150.3 338.3 164C341.3 177.7 339.7 191.3 344.5 204.8C349.3 218.3 360.7 231.7 355.3 245.2C350 258.7 328 272.3 318.5 286C309 299.7 312 313.3 323.7 327C335.3 340.7 355.7 354.3 351 368C346.3 381.7 316.7 395.3 296 409C275.3 422.7 263.7 436.3 257.8 443.2L252 450L0 450L0 443.2C0 436.3 0 422.7 0 409C0 395.3 0 381.7 0 368C0 354.3 0 340.7 0 327C0 313.3 0 299.7 0 286C0 272.3 0 258.7 0 245.2C0 231.7 0 218.3 0 204.8C0 191.3 0 177.7 0 164C0 150.3 0 136.7 0 123C0 109.3 0 95.7 0 82C0 68.3 0 54.7 0 41C0 27.3 0 13.7 0 6.8L0 0Z" fill="#200303"></path><path d="M250 0L251.7 6.8C253.3 13.7 256.7 27.3 261.3 41C266 54.7 272 68.3 279.3 82C286.7 95.7 295.3 109.3 299.5 123C303.7 136.7 303.3 150.3 290.5 164C277.7 177.7 252.3 191.3 243.5 204.8C234.7 218.3 242.3 231.7 248.7 245.2C255 258.7 260 272.3 256.2 286C252.3 299.7 239.7 313.3 231.3 327C223 340.7 219 354.3 227.3 368C235.7 381.7 256.3 395.3 264.5 409C272.7 422.7 268.3 436.3 266.2 443.2L264 450L0 450L0 443.2C0 436.3 0 422.7 0 409C0 395.3 0 381.7 0 368C0 354.3 0 340.7 0 327C0 313.3 0 299.7 0 286C0 272.3 0 258.7 0 245.2C0 231.7 0 218.3 0 204.8C0 191.3 0 177.7 0 164C0 150.3 0 136.7 0 123C0 109.3 0 95.7 0 82C0 68.3 0 54.7 0 41C0 27.3 0 13.7 0 6.8L0 0Z" fill="#2c0908"></path><path d="M250 0L242.7 6.8C235.3 13.7 220.7 27.3 211.3 41C202 54.7 198 68.3 198.3 82C198.7 95.7 203.3 109.3 205.2 123C207 136.7 206 150.3 207.5 164C209 177.7 213 191.3 211.3 204.8C209.7 218.3 202.3 231.7 209.3 245.2C216.3 258.7 237.7 272.3 243.8 286C250 299.7 241 313.3 244.5 327C248 340.7 264 354.3 256.5 368C249 381.7 218 395.3 217.5 409C217 422.7 247 436.3 262 443.2L277 450L0 450L0 443.2C0 436.3 0 422.7 0 409C0 395.3 0 381.7 0 368C0 354.3 0 340.7 0 327C0 313.3 0 299.7 0 286C0 272.3 0 258.7 0 245.2C0 231.7 0 218.3 0 204.8C0 191.3 0 177.7 0 164C0 150.3 0 136.7 0 123C0 109.3 0 95.7 0 82C0 68.3 0 54.7 0 41C0 27.3 0 13.7 0 6.8L0 0Z" fill="#390a0b"></path><path d="M238 0L228.2 6.8C218.3 13.7 198.7 27.3 197.3 41C196 54.7 213 68.3 218.5 82C224 95.7 218 109.3 206.5 123C195 136.7 178 150.3 179.5 164C181 177.7 201 191.3 205.3 204.8C209.7 218.3 198.3 231.7 197 245.2C195.7 258.7 204.3 272.3 213.5 286C222.7 299.7 232.3 313.3 227.3 327C222.3 340.7 202.7 354.3 190.3 368C178 381.7 173 395.3 173.2 409C173.3 422.7 178.7 436.3 181.3 443.2L184 450L0 450L0 443.2C0 436.3 0 422.7 0 409C0 395.3 0 381.7 0 368C0 354.3 0 340.7 0 327C0 313.3 0 299.7 0 286C0 272.3 0 258.7 0 245.2C0 231.7 0 218.3 0 204.8C0 191.3 0 177.7 0 164C0 150.3 0 136.7 0 123C0 109.3 0 95.7 0 82C0 68.3 0 54.7 0 41C0 27.3 0 13.7 0 6.8L0 0Z" fill="#470a0d"></path><path d="M173 0L174.3 6.8C175.7 13.7 178.3 27.3 182.8 41C187.3 54.7 193.7 68.3 188.3 82C183 95.7 166 109.3 155.3 123C144.7 136.7 140.3 150.3 141.2 164C142 177.7 148 191.3 149.2 204.8C150.3 218.3 146.7 231.7 145.5 245.2C144.3 258.7 145.7 272.3 154.5 286C163.3 299.7 179.7 313.3 179.5 327C179.3 340.7 162.7 354.3 155.8 368C149 381.7 152 395.3 152.2 409C152.3 422.7 149.7 436.3 148.3 443.2L147 450L0 450L0 443.2C0 436.3 0 422.7 0 409C0 395.3 0 381.7 0 368C0 354.3 0 340.7 0 327C0 313.3 0 299.7 0 286C0 272.3 0 258.7 0 245.2C0 231.7 0 218.3 0 204.8C0 191.3 0 177.7 0 164C0 150.3 0 136.7 0 123C0 109.3 0 95.7 0 82C0 68.3 0 54.7 0 41C0 27.3 0 13.7 0 6.8L0 0Z" fill="#550a0d"></path><path d="M154 0L152.5 6.8C151 13.7 148 27.3 138.5 41C129 54.7 113 68.3 109.3 82C105.7 95.7 114.3 109.3 123.3 123C132.3 136.7 141.7 150.3 144 164C146.3 177.7 141.7 191.3 134.7 204.8C127.7 218.3 118.3 231.7 116 245.2C113.7 258.7 118.3 272.3 115.2 286C112 299.7 101 313.3 107.5 327C114 340.7 138 354.3 145 368C152 381.7 142 395.3 130.3 409C118.7 422.7 105.3 436.3 98.7 443.2L92 450L0 450L0 443.2C0 436.3 0 422.7 0 409C0 395.3 0 381.7 0 368C0 354.3 0 340.7 0 327C0 313.3 0 299.7 0 286C0 272.3 0 258.7 0 245.2C0 231.7 0 218.3 0 204.8C0 191.3 0 177.7 0 164C0 150.3 0 136.7 0 123C0 109.3 0 95.7 0 82C0 68.3 0 54.7 0 41C0 27.3 0 13.7 0 6.8L0 0Z" fill="#630a0c"></path><path d="M118 0L109.3 6.8C100.7 13.7 83.3 27.3 76.5 41C69.7 54.7 73.3 68.3 78.2 82C83 95.7 89 109.3 90.7 123C92.3 136.7 89.7 150.3 90.8 164C92 177.7 97 191.3 97.2 204.8C97.3 218.3 92.7 231.7 91.5 245.2C90.3 258.7 92.7 272.3 89 286C85.3 299.7 75.7 313.3 77.8 327C80 340.7 94 354.3 98.5 368C103 381.7 98 395.3 95.3 409C92.7 422.7 92.3 436.3 92.2 443.2L92 450L0 450L0 443.2C0 436.3 0 422.7 0 409C0 395.3 0 381.7 0 368C0 354.3 0 340.7 0 327C0 313.3 0 299.7 0 286C0 272.3 0 258.7 0 245.2C0 231.7 0 218.3 0 204.8C0 191.3 0 177.7 0 164C0 150.3 0 136.7 0 123C0 109.3 0 95.7 0 82C0 68.3 0 54.7 0 41C0 27.3 0 13.7 0 6.8L0 0Z" fill="#700b09"></path><path d="M68 0L61.3 6.8C54.7 13.7 41.3 27.3 35.7 41C30 54.7 32 68.3 39.8 82C47.7 95.7 61.3 109.3 67.2 123C73 136.7 71 150.3 68.3 164C65.7 177.7 62.3 191.3 56.5 204.8C50.7 218.3 42.3 231.7 39.2 245.2C36 258.7 38 272.3 39.7 286C41.3 299.7 42.7 313.3 43.7 327C44.7 340.7 45.3 354.3 46.7 368C48 381.7 50 395.3 53.7 409C57.3 422.7 62.7 436.3 65.3 443.2L68 450L0 450L0 443.2C0 436.3 0 422.7 0 409C0 395.3 0 381.7 0 368C0 354.3 0 340.7 0 327C0 313.3 0 299.7 0 286C0 272.3 0 258.7 0 245.2C0 231.7 0 218.3 0 204.8C0 191.3 0 177.7 0 164C0 150.3 0 136.7 0 123C0 109.3 0 95.7 0 82C0 68.3 0 54.7 0 41C0 27.3 0 13.7 0 6.8L0 0Z" fill="#7e0d05"></path></svg>