<svg id="visual" viewBox="0 0 900 450" width="900" height="450" xmlns="http://www.w3.org/2000/svg" xmlns:xlink="http://www.w3.org/1999/xlink" version="1.1"><path d="M551 450L564.5 443.2C578 436.3 605 422.7 610.2 409C615.3 395.3 598.7 381.7 590.5 368C582.3 354.3 582.7 340.7 578.5 327C574.3 313.3 565.7 299.7 556.3 286C547 272.3 537 258.7 549.2 245.2C561.3 231.7 595.7 218.3 611.5 204.8C627.3 191.3 624.7 177.7 615 164C605.3 150.3 588.7 136.7 594.2 123C599.7 109.3 627.3 95.7 628 82C628.7 68.3 602.3 54.7 596.2 41C590 27.3 604 13.7 611 6.8L618 0L900 0L900 6.8C900 13.7 900 27.3 900 41C900 54.7 900 68.3 900 82C900 95.7 900 109.3 900 123C900 136.7 900 150.3 900 164C900 177.7 900 191.3 900 204.8C900 218.3 900 231.7 900 245.2C900 258.7 900 272.3 900 286C900 299.7 900 313.3 900 327C900 340.7 900 354.3 900 368C900 381.7 900 395.3 900 409C900 422.7 900 436.3 900 443.2L900 450Z" fill="#200303"></path><path d="M596 450L592 443.2C588 436.3 580 422.7 590.3 409C600.7 395.3 629.3 381.7 647.2 368C665 354.3 672 340.7 662.5 327C653 313.3 627 299.7 625.7 286C624.3 272.3 647.7 258.7 642 245.2C636.3 231.7 601.7 218.3 589 204.8C576.3 191.3 585.7 177.7 590.3 164C595 150.3 595 136.7 603 123C611 109.3 627 95.7 625 82C623 68.3 603 54.7 597.2 41C591.3 27.3 599.7 13.7 603.8 6.8L608 0L900 0L900 6.8C900 13.7 900 27.3 900 41C900 54.7 900 68.3 900 82C900 95.7 900 109.3 900 123C900 136.7 900 150.3 900 164C900 177.7 900 191.3 900 204.8C900 218.3 900 231.7 900 245.2C900 258.7 900 272.3 900 286C900 299.7 900 313.3 900 327C900 340.7 900 354.3 900 368C900 381.7 900 395.3 900 409C900 422.7 900 436.3 900 443.2L900 450Z" fill="#2c0908"></path><path d="M699 450L696.3 443.2C693.7 436.3 688.3 422.7 676.5 409C664.7 395.3 646.3 381.7 640 368C633.7 354.3 639.3 340.7 644.2 327C649 313.3 653 299.7 661 286C669 272.3 681 258.7 674.7 245.2C668.3 231.7 643.7 218.3 632.2 204.8C620.7 191.3 622.3 177.7 628.2 164C634 150.3 644 136.7 652.5 123C661 109.3 668 95.7 676.2 82C684.3 68.3 693.7 54.7 693.8 41C694 27.3 685 13.7 680.5 6.8L676 0L900 0L900 6.8C900 13.7 900 27.3 900 41C900 54.7 900 68.3 900 82C900 95.7 900 109.3 900 123C900 136.7 900 150.3 900 164C900 177.7 900 191.3 900 204.8C900 218.3 900 231.7 900 245.2C900 258.7 900 272.3 900 286C900 299.7 900 313.3 900 327C900 340.7 900 354.3 900 368C900 381.7 900 395.3 900 409C900 422.7 900 436.3 900 443.2L900 450Z" fill="#390a0b"></path><path d="M671 450L678.7 443.2C686.3 436.3 701.7 422.7 703.5 409C705.3 395.3 693.7 381.7 699.2 368C704.7 354.3 727.3 340.7 725.7 327C724 313.3 698 299.7 694 286C690 272.3 708 258.7 719 245.2C730 231.7 734 218.3 721.5 204.8C709 191.3 680 177.7 678.5 164C677 150.3 703 136.7 711.3 123C719.7 109.3 710.3 95.7 703.5 82C696.7 68.3 692.3 54.7 686.2 41C680 27.3 672 13.7 668 6.8L664 0L900 0L900 6.8C900 13.7 900 27.3 900 41C900 54.7 900 68.3 900 82C900 95.7 900 109.3 900 123C900 136.7 900 150.3 900 164C900 177.7 900 191.3 900 204.8C900 218.3 900 231.7 900 245.2C900 258.7 900 272.3 900 286C900 299.7 900 313.3 900 327C900 340.7 900 354.3 900 368C900 381.7 900 395.3 900 409C900 422.7 900 436.3 900 443.2L900 450Z" fill="#470a0d"></path><path d="M731 450L736.2 443.2C741.3 436.3 751.7 422.7 749.5 409C747.3 395.3 732.7 381.7 734.3 368C736 354.3 754 340.7 754.8 327C755.7 313.3 739.3 299.7 728 286C716.7 272.3 710.3 258.7 707.2 245.2C704 231.7 704 218.3 712.3 204.8C720.7 191.3 737.3 177.7 749.3 164C761.3 150.3 768.7 136.7 768.8 123C769 109.3 762 95.7 752.2 82C742.3 68.3 729.7 54.7 722.8 41C716 27.3 715 13.7 714.5 6.8L714 0L900 0L900 6.8C900 13.7 900 27.3 900 41C900 54.7 900 68.3 900 82C900 95.7 900 109.3 900 123C900 136.7 900 150.3 900 164C900 177.7 900 191.3 900 204.8C900 218.3 900 231.7 900 245.2C900 258.7 900 272.3 900 286C900 299.7 900 313.3 900 327C900 340.7 900 354.3 900 368C900 381.7 900 395.3 900 409C900 422.7 900 436.3 900 443.2L900 450Z" fill="#550a0d"></path><path d="M801 450L802 443.2C803 436.3 805 422.7 802 409C799 395.3 791 381.7 780.8 368C770.7 354.3 758.3 340.7 754.3 327C750.3 313.3 754.7 299.7 756.3 286C758 272.3 757 258.7 764.5 245.2C772 231.7 788 218.3 787.3 204.8C786.7 191.3 769.3 177.7 770.3 164C771.3 150.3 790.7 136.7 790.2 123C789.7 109.3 769.3 95.7 766.7 82C764 68.3 779 54.7 784.5 41C790 27.3 786 13.7 784 6.8L782 0L900 0L900 6.8C900 13.7 900 27.3 900 41C900 54.7 900 68.3 900 82C900 95.7 900 109.3 900 123C900 136.7 900 150.3 900 164C900 177.7 900 191.3 900 204.8C900 218.3 900 231.7 900 245.2C900 258.7 900 272.3 900 286C900 299.7 900 313.3 900 327C900 340.7 900 354.3 900 368C900 381.7 900 395.3 900 409C900 422.7 900 436.3 900 443.2L900 450Z" fill="#630a0c"></path><path d="M804 450L802 443.2C800 436.3 796 422.7 800.8 409C805.7 395.3 819.3 381.7 820.2 368C821 354.3 809 340.7 810.7 327C812.3 313.3 827.7 299.7 833.2 286C838.7 272.3 834.3 258.7 831.3 245.2C828.3 231.7 826.7 218.3 824.2 204.8C821.7 191.3 818.3 177.7 812.2 164C806 150.3 797 136.7 798.7 123C800.3 109.3 812.7 95.7 814.2 82C815.7 68.3 806.3 54.7 808 41C809.7 27.3 822.3 13.7 828.7 6.8L835 0L900 0L900 6.8C900 13.7 900 27.3 900 41C900 54.7 900 68.3 900 82C900 95.7 900 109.3 900 123C900 136.7 900 150.3 900 164C900 177.7 900 191.3 900 204.8C900 218.3 900 231.7 900 245.2C900 258.7 900 272.3 900 286C900 299.7 900 313.3 900 327C900 340.7 900 354.3 900 368C900 381.7 900 395.3 900 409C900 422.7 900 436.3 900 443.2L900 450Z" fill="#700b09"></path><path d="M842 450L841.3 443.2C840.7 436.3 839.3 422.7 837.2 409C835 395.3 832 381.7 830.8 368C829.7 354.3 830.3 340.7 836.5 327C842.7 313.3 854.3 299.7 861.3 286C868.3 272.3 870.7 258.7 869.3 245.2C868 231.7 863 218.3 859.5 204.8C856 191.3 854 177.7 852.3 164C850.7 150.3 849.3 136.7 853.2 123C857 109.3 866 95.7 867.2 82C868.3 68.3 861.7 54.7 853.5 41C845.3 27.3 835.7 13.7 830.8 6.8L826 0L900 0L900 6.8C900 13.7 900 27.3 900 41C900 54.7 900 68.3 900 82C900 95.7 900 109.3 900 123C900 136.7 900 150.3 900 164C900 177.7 900 191.3 900 204.8C900 218.3 900 231.7 900 245.2C900 258.7 900 272.3 900 286C900 299.7 900 313.3 900 327C900 340.7 900 354.3 900 368C900 381.7 900 395.3 900 409C900 422.7 900 436.3 900 443.2L900 450Z" fill="#7e0d05"></path></svg>